
{"accessors": [{"bufferView": 0,
                "componentType": 5125,
                "count": 457056,
                "max": [76175],
                "min": [0],
                "type": "SCALAR"},
               {"bufferView": 1,
                "byteOffset": 0,
                "componentType": 5126,
                "count": 76176,
                "max": [0.046500, 0.125500, 0.115100],
                "min": [-0.046100, -0.125400, 0.000700],
                "type": "VEC3"},
               {"bufferView": 2,
                "byteOffset": 0,
                "componentType": 5126,
                "count": 76176,
                "max": [1.000000, 1.000000, 1.000000],
                "min": [0.000000, 0.000000, 0.000000],
                "type": "VEC3"},
               {"bufferView": 3,
                "byteOffset": 0,
                "componentType": 5126,
                "count": 76176,
                "max": [0.690938, 0.920915],
                "min": [0.277479, 0.081914],
                "type": "VEC2"},
               {"bufferView": 4,
                "byteOffset": 0,
                "componentType": 5126,
                "count": 76176,
                "max": [0.733163, 0.980577],
                "min": [0.298825, 0.034867],
                "type": "VEC2"},
               {"bufferView": 5,
                "byteOffset": 0,
                "componentType": 5126,
                "count": 76176,
                "max": [0.648059, 0.934712],
                "min": [0.311486, 0.040956],
                "type": "VEC2"},
               {"bufferView": 6,
                "byteOffset": 0,
                "componentType": 5126,
                "count": 76176,
                "max": [0.652143, 0.918085],
                "min": [0.329090, 0.073206],
                "type": "VEC2"},
               {"bufferView": 7,
                "byteOffset": 0,
                "componentType": 5126,
                "count": 76176,
                "max": [0.807703, 0.950108],
                "min": [0.212658, 0.127994],
                "type": "VEC2"},
               {"bufferView": 8,
                "byteOffset": 0,
                "componentType": 5126,
                "count": 76176,
                "max": [1.001351, 1.000243],
                "min": [0.000587, 0.000873],
                "type": "VEC2"},
               {"bufferView": 9,
                "byteOffset": 0,
                "componentType": 5126,
                "count": 76176,
                "max": [1.000000, 1.000000, 0.000000, 1.000000],
                "min": [0.000000, 0.000000, 0.000000, 0.000000],
                "type": "VEC4"}
],
 "asset": {"generator": "https://github.com/mikedh/trimesh", "version": "2.0"},
 "bufferViews": [{"buffer": 0, "byteLength": 1828224, "byteOffset": 0},
                 {"buffer": 0, "byteLength": 914112, "byteOffset": 1828224},
                 {"buffer": 0, "byteLength": 914112, "byteOffset": 2742336},
                 {"buffer": 0, "byteLength": 609408, "byteOffset": 3656448},
                 {"buffer": 0, "byteLength": 609408, "byteOffset": 4265856},
                 {"buffer": 0, "byteLength": 609408, "byteOffset": 4875264},
                 {"buffer": 0, "byteLength": 609408, "byteOffset": 5484672},
                 {"buffer": 0, "byteLength": 609408, "byteOffset": 6094080},
                 {"buffer": 0, "byteLength": 609408, "byteOffset": 6703488},
                 {"buffer": 0, "byteLength": 1218816, "byteOffset": 7312896}
                 ],
 "buffers": [{"byteLength": 10359936, "uri": "gltf_buffer.bin"}],
 "meshes": [{"extras": {},
             "name": "geometry_0",
             "primitives": [{"attributes": {"NORMAL": 2,
                                            "POSITION": 1,
                                            "COLOR_0": 9,
                                            "TEXCOORD_0": 3,
                                            "TEXCOORD_1": 4,
                                            "TEXCOORD_2": 5,
                                            "TEXCOORD_3": 6,
                                            "TEXCOORD_4": 7,
                                            "TEXCOORD_5": 8
             },
                             "indices": 0,
                             "mode": 4}]}],
 "nodes": [{"children": [1], "name": "world"},
           {"mesh": 0, "name": "geometry_0"}],
 "scene": 0,
 "scenes": [{"nodes": [0]}]}
