
{"accessors": [{"bufferView": 0,
                "componentType": 5125,
                "count": 475752,
                "max": [79293],
                "min": [0],
                "type": "SCALAR"},
               {"bufferView": 1,
                "byteOffset": 0,
                "componentType": 5126,
                "count": 79294,
                "max": [0.044900, 0.125300, 0.105200],
                "min": [-0.045300, -0.125500, 0.000600],
                "type": "VEC3"},
               {"bufferView": 2,
                "byteOffset": 0,
                "componentType": 5126,
                "count": 79294,
                "max": [1.000000, 1.000000, 0.999992],
                "min": [0.000000, 0.000000, 0.000000],
                "type": "VEC3"},
               {"bufferView": 3,
                "byteOffset": 0,
                "componentType": 5126,
                "count": 79294,
                "max": [0.675177, 0.918549],
                "min": [0.326256, 0.082003],
                "type": "VEC2"},
               {"bufferView": 4,
                "byteOffset": 0,
                "componentType": 5126,
                "count": 79294,
                "max": [0.659349, 0.900067],
                "min": [0.329005, 0.100000],
                "type": "VEC2"},
               {"bufferView": 5,
                "byteOffset": 0,
                "componentType": 5126,
                "count": 79294,
                "max": [0.477618, 0.899841],
                "min": [0.194236, 0.100500],
                "type": "VEC2"},
               {"bufferView": 6,
                "byteOffset": 0,
                "componentType": 5126,
                "count": 79294,
                "max": [0.649685, 0.918698],
                "min": [0.348768, 0.081982],
                "type": "VEC2"},
               {"bufferView": 7,
                "byteOffset": 0,
                "componentType": 5126,
                "count": 79294,
                "max": [0.898404, 0.731644],
                "min": [0.527681, 0.248666],
                "type": "VEC2"},
               {"bufferView": 8,
                "byteOffset": 0,
                "componentType": 5126,
                "count": 79294,
                "max": [1.002962, 1.002411],
                "min": [-0.000935, 0.000345],
                "type": "VEC2"},
               {"bufferView": 9,
                "byteOffset": 0,
                "componentType": 5126,
                "count": 79294,
                "max": [1.000000, 0.999997, 0.000000, 1.000000],
                "min": [0.000000, 0.000000, 0.000000, 0.000000],
                "type": "VEC4"}
],
 "asset": {"generator": "https://github.com/mikedh/trimesh", "version": "2.0"},
 "bufferViews": [{"buffer": 0, "byteLength": 1903008, "byteOffset": 0},
                 {"buffer": 0, "byteLength": 951528, "byteOffset": 1903008},
                 {"buffer": 0, "byteLength": 951528, "byteOffset": 2854536},
                 {"buffer": 0, "byteLength": 634352, "byteOffset": 3806064},
                 {"buffer": 0, "byteLength": 634352, "byteOffset": 4440416},
                 {"buffer": 0, "byteLength": 634352, "byteOffset": 5074768},
                 {"buffer": 0, "byteLength": 634352, "byteOffset": 5709120},
                 {"buffer": 0, "byteLength": 634352, "byteOffset": 6343472},
                 {"buffer": 0, "byteLength": 634352, "byteOffset": 6977824},
                 {"buffer": 0, "byteLength": 1268704, "byteOffset": 7612176}
                 ],
 "buffers": [{"byteLength": 10783936, "uri": "gltf_buffer.bin"}],
 "meshes": [{"extras": {},
             "name": "geometry_0",
             "primitives": [{"attributes": {"NORMAL": 2,
                                            "POSITION": 1,
                                            "COLOR_0": 9,
                                            "TEXCOORD_0": 3,
                                            "TEXCOORD_1": 4,
                                            "TEXCOORD_2": 5,
                                            "TEXCOORD_3": 6,
                                            "TEXCOORD_4": 7,
                                            "TEXCOORD_5": 8
             },
                             "indices": 0,
                             "mode": 4}]}],
 "nodes": [{"children": [1], "name": "world"},
           {"mesh": 0, "name": "geometry_0"}],
 "scene": 0,
 "scenes": [{"nodes": [0]}]}
