
{"accessors": [{"bufferView": 0,
                "componentType": 5125,
                "count": 486468,
                "max": [81079],
                "min": [0],
                "type": "SCALAR"},
               {"bufferView": 1,
                "byteOffset": 0,
                "componentType": 5126,
                "count": 81080,
                "max": [0.049500, 0.136400, 0.134600],
                "min": [-0.049800, -0.137200, 0.000500],
                "type": "VEC3"},
               {"bufferView": 2,
                "byteOffset": 0,
                "componentType": 5126,
                "count": 81080,
                "max": [1.000000, 1.000000, 1.000000],
                "min": [0.000000, 0.000000, 0.000000],
                "type": "VEC3"},
               {"bufferView": 3,
                "byteOffset": 0,
                "componentType": 5126,
                "count": 81080,
                "max": [0.724000, 0.954500],
                "min": [0.277100, 0.042600],
                "type": "VEC2"},
               {"bufferView": 4,
                "byteOffset": 0,
                "componentType": 5126,
                "count": 81080,
                "max": [0.695699, 0.875665],
                "min": [0.303970, 0.096810],
                "type": "VEC2"},
               {"bufferView": 5,
                "byteOffset": 0,
                "componentType": 5126,
                "count": 81080,
                "max": [0.478676, 0.900667],
                "min": [0.188113, 0.101229],
                "type": "VEC2"},
               {"bufferView": 6,
                "byteOffset": 0,
                "componentType": 5126,
                "count": 81080,
                "max": [0.664900, 0.957400],
                "min": [0.333900, 0.045500],
                "type": "VEC2"},
               {"bufferView": 7,
                "byteOffset": 0,
                "componentType": 5126,
                "count": 81080,
                "max": [0.914112, 0.775723],
                "min": [0.528888, 0.207903],
                "type": "VEC2"},
               {"bufferView": 8,
                "byteOffset": 0,
                "componentType": 5126,
                "count": 81080,
                "max": [0.954152, 0.996596],
                "min": [0.050187, -0.078236],
                "type": "VEC2"},
               {"bufferView": 9,
                "byteOffset": 0,
                "componentType": 5126,
                "count": 81080,
                "max": [1.000000, 1.000000, 0.000000, 1.000000],
                "min": [0.000000, 0.000000, 0.000000, 0.000000],
                "type": "VEC4"}
],
 "asset": {"generator": "https://github.com/mikedh/trimesh", "version": "2.0"},
 "bufferViews": [{"buffer": 0, "byteLength": 1945872, "byteOffset": 0},
                 {"buffer": 0, "byteLength": 972960, "byteOffset": 1945872},
                 {"buffer": 0, "byteLength": 972960, "byteOffset": 2918832},
                 {"buffer": 0, "byteLength": 648640, "byteOffset": 3891792},
                 {"buffer": 0, "byteLength": 648640, "byteOffset": 4540432},
                 {"buffer": 0, "byteLength": 648640, "byteOffset": 5189072},
                 {"buffer": 0, "byteLength": 648640, "byteOffset": 5837712},
                 {"buffer": 0, "byteLength": 648640, "byteOffset": 6486352},
                 {"buffer": 0, "byteLength": 648640, "byteOffset": 7134992},
                 {"buffer": 0, "byteLength": 1297280, "byteOffset": 7783632}
                 ],
 "buffers": [{"byteLength": 10378192, "uri": "gltf_buffer.bin"}],
 "meshes": [{"extras": {},
             "name": "geometry_0",
             "primitives": [{"attributes": {"NORMAL": 2,
                                            "POSITION": 1,
                                            "COLOR_0": 9,
                                            "TEXCOORD_0": 3,
                                            "TEXCOORD_1": 4,
                                            "TEXCOORD_2": 5,
                                            "TEXCOORD_3": 6,
                                            "TEXCOORD_4": 7,
                                            "TEXCOORD_5": 8
             },
                             "indices": 0,
                             "mode": 4}]}],
 "nodes": [{"children": [1], "name": "world"},
           {"mesh": 0, "name": "geometry_0"}],
 "scene": 0,
 "scenes": [{"nodes": [0]}]}
