
{"accessors": [{"bufferView": 0,
                "componentType": 5125,
                "count": 490572,
                "max": [81833],
                "min": [0],
                "type": "SCALAR"},
               {"bufferView": 1,
                "byteOffset": 0,
                "componentType": 5126,
                "count": 81834,
                "max": [0.055100, 0.173753, 0.124700],
                "min": [-0.055100, -0.135900, 0.000000],
                "type": "VEC3"},
               {"bufferView": 2,
                "byteOffset": 0,
                "componentType": 5126,
                "count": 81834,
                "max": [1.000000, 1.000000, 1.000000],
                "min": [0.000000, 0.000000, 0.000000],
                "type": "VEC3"},
               {"bufferView": 3,
                "byteOffset": 0,
                "componentType": 5126,
                "count": 81834,
                "max": [0.706800, 0.954300],
                "min": [0.000000, 0.000000],
                "type": "VEC2"},
               {"bufferView": 4,
                "byteOffset": 0,
                "componentType": 5126,
                "count": 81834,
                "max": [0.569359, 0.963430],
                "min": [0.000000, 0.000000],
                "type": "VEC2"},
               {"bufferView": 5,
                "byteOffset": 0,
                "componentType": 5126,
                "count": 81834,
                "max": [0.487009, 0.672485],
                "min": [0.000000, 0.000000],
                "type": "VEC2"},
               {"bufferView": 6,
                "byteOffset": 0,
                "componentType": 5126,
                "count": 81834,
                "max": [0.683800, 0.952800],
                "min": [0.000000, 0.000000],
                "type": "VEC2"},
               {"bufferView": 7,
                "byteOffset": 0,
                "componentType": 5126,
                "count": 81834,
                "max": [0.995469, 0.691488],
                "min": [0.000000, 0.000000],
                "type": "VEC2"},
               {"bufferView": 8,
                "byteOffset": 0,
                "componentType": 5126,
                "count": 81834,
                "max": [0.497575, 0.597341],
                "min": [-0.002629, 0.000000],
                "type": "VEC2"},
               {"bufferView": 9,
                "byteOffset": 0,
                "componentType": 5126,
                "count": 81834,
                "max": [1.000000, 1.000000, 0.000000, 1.000000],
                "min": [0.000000, 0.000000, 0.000000, 0.000000],
                "type": "VEC4"}
],
 "asset": {"generator": "https://github.com/mikedh/trimesh", "version": "2.0"},
 "bufferViews": [{"buffer": 0, "byteLength": 1962288, "byteOffset": 0},
                 {"buffer": 0, "byteLength": 982008, "byteOffset": 1962288},
                 {"buffer": 0, "byteLength": 982008, "byteOffset": 2944296},
                 {"buffer": 0, "byteLength": 654672, "byteOffset": 3926304},
                 {"buffer": 0, "byteLength": 654672, "byteOffset": 4580976},
                 {"buffer": 0, "byteLength": 654672, "byteOffset": 5235648},
                 {"buffer": 0, "byteLength": 654672, "byteOffset": 5890320},
                 {"buffer": 0, "byteLength": 654672, "byteOffset": 6544992},
                 {"buffer": 0, "byteLength": 654672, "byteOffset": 7199664},
                 {"buffer": 0, "byteLength": 1309344, "byteOffset": 7854336}
                 ],
 "buffers": [{"byteLength": 10473024, "uri": "gltf_buffer.bin"}],
 "meshes": [{"extras": {},
             "name": "geometry_0",
             "primitives": [{"attributes": {"NORMAL": 2,
                                            "POSITION": 1,
                                            "COLOR_0": 9,
                                            "TEXCOORD_0": 3,
                                            "TEXCOORD_1": 4,
                                            "TEXCOORD_2": 5,
                                            "TEXCOORD_3": 6,
                                            "TEXCOORD_4": 7,
                                            "TEXCOORD_5": 8
             },
                             "indices": 0,
                             "mode": 4}]}],
 "nodes": [{"children": [1], "name": "world"},
           {"mesh": 0, "name": "geometry_0"}],
 "scene": 0,
 "scenes": [{"nodes": [0]}]}
