
{"accessors": [{"bufferView": 0,
                "componentType": 5125,
                "count": 448302,
                "max": [74716],
                "min": [0],
                "type": "SCALAR"},
               {"bufferView": 1,
                "byteOffset": 0,
                "componentType": 5126,
                "count": 74717,
                "max": [0.052100, 0.129500, 0.132600],
                "min": [-0.052400, -0.129200, 0.000400],
                "type": "VEC3"},
               {"bufferView": 2,
                "byteOffset": 0,
                "componentType": 5126,
                "count": 74717,
                "max": [1.000000, 1.000000, 1.000000],
                "min": [0.000000, 0.000000, 0.000000],
                "type": "VEC3"},
               {"bufferView": 3,
                "byteOffset": 0,
                "componentType": 5126,
                "count": 74717,
                "max": [0.731700, 0.955400],
                "min": [0.267100, 0.045900],
                "type": "VEC2"},
               {"bufferView": 4,
                "byteOffset": 0,
                "componentType": 5126,
                "count": 74717,
                "max": [0.595764, 0.976375],
                "min": [0.116369, 0.017159],
                "type": "VEC2"},
               {"bufferView": 5,
                "byteOffset": 0,
                "componentType": 5126,
                "count": 74717,
                "max": [0.471700, 0.674688],
                "min": [0.223541, -0.001644],
                "type": "VEC2"},
               {"bufferView": 6,
                "byteOffset": 0,
                "componentType": 5126,
                "count": 74717,
                "max": [0.683500, 0.954100],
                "min": [0.316000, 0.044600],
                "type": "VEC2"},
               {"bufferView": 7,
                "byteOffset": 0,
                "componentType": 5126,
                "count": 74717,
                "max": [0.998583, 0.662993],
                "min": [0.552960, 0.026213],
                "type": "VEC2"},
               {"bufferView": 8,
                "byteOffset": 0,
                "componentType": 5126,
                "count": 74717,
                "max": [0.975090, 0.997397],
                "min": [0.023788, -0.062206],
                "type": "VEC2"},
               {"bufferView": 9,
                "byteOffset": 0,
                "componentType": 5126,
                "count": 74717,
                "max": [1.000000, 0.999961, 0.000000, 1.000000],
                "min": [0.000000, 0.000000, 0.000000, 0.000000],
                "type": "VEC4"}
],
 "asset": {"generator": "https://github.com/mikedh/trimesh", "version": "2.0"},
 "bufferViews": [{"buffer": 0, "byteLength": 1793208, "byteOffset": 0},
                 {"buffer": 0, "byteLength": 896604, "byteOffset": 1793208},
                 {"buffer": 0, "byteLength": 896604, "byteOffset": 2689812},
                 {"buffer": 0, "byteLength": 597736, "byteOffset": 3586416},
                 {"buffer": 0, "byteLength": 597736, "byteOffset": 4184152},
                 {"buffer": 0, "byteLength": 597736, "byteOffset": 4781888},
                 {"buffer": 0, "byteLength": 597736, "byteOffset": 5379624},
                 {"buffer": 0, "byteLength": 597736, "byteOffset": 5977360},
                 {"buffer": 0, "byteLength": 597736, "byteOffset": 6575096},
                 {"buffer": 0, "byteLength": 1195472, "byteOffset": 7172832}
                 ],
 "buffers": [{"byteLength": 9563776, "uri": "gltf_buffer.bin"}],
 "meshes": [{"extras": {},
             "name": "geometry_0",
             "primitives": [{"attributes": {"NORMAL": 2,
                                            "POSITION": 1,
                                            "COLOR_0": 9,
                                            "TEXCOORD_0": 3,
                                            "TEXCOORD_1": 4,
                                            "TEXCOORD_2": 5,
                                            "TEXCOORD_3": 6,
                                            "TEXCOORD_4": 7,
                                            "TEXCOORD_5": 8
             },
                             "indices": 0,
                             "mode": 4}]}],
 "nodes": [{"children": [1], "name": "world"},
           {"mesh": 0, "name": "geometry_0"}],
 "scene": 0,
 "scenes": [{"nodes": [0]}]}
