
{"accessors": [{"bufferView": 0,
                "componentType": 5125,
                "count": 587082,
                "max": [97838],
                "min": [0],
                "type": "SCALAR"},
               {"bufferView": 1,
                "byteOffset": 0,
                "componentType": 5126,
                "count": 97839,
                "max": [0.046100, 0.125100, 0.119300],
                "min": [-0.046700, -0.125300, 0.000600],
                "type": "VEC3"},
               {"bufferView": 2,
                "byteOffset": 0,
                "componentType": 5126,
                "count": 97839,
                "max": [1.000000, 1.000000, 1.000000],
                "min": [0.000000, 0.000000, 0.000000],
                "type": "VEC3"},
               {"bufferView": 3,
                "byteOffset": 0,
                "componentType": 5126,
                "count": 97839,
                "max": [0.696542, 0.916472],
                "min": [0.286772, 0.089289],
                "type": "VEC2"},
               {"bufferView": 4,
                "byteOffset": 0,
                "componentType": 5126,
                "count": 97839,
                "max": [0.739494, 0.743987],
                "min": [0.391933, 0.068397],
                "type": "VEC2"},
               {"bufferView": 5,
                "byteOffset": 0,
                "componentType": 5126,
                "count": 97839,
                "max": [0.591579, 0.846238],
                "min": [0.304386, 0.135883],
                "type": "VEC2"},
               {"bufferView": 6,
                "byteOffset": 0,
                "componentType": 5126,
                "count": 97839,
                "max": [0.653955, 0.917253],
                "min": [0.345416, 0.082320],
                "type": "VEC2"},
               {"bufferView": 7,
                "byteOffset": 0,
                "componentType": 5126,
                "count": 97839,
                "max": [0.854355, 0.733199],
                "min": [0.612538, 0.393550],
                "type": "VEC2"},
               {"bufferView": 8,
                "byteOffset": 0,
                "componentType": 5126,
                "count": 97839,
                "max": [1.002742, 1.001991],
                "min": [0.000677, 0.000011],
                "type": "VEC2"},
               {"bufferView": 9,
                "byteOffset": 0,
                "componentType": 5126,
                "count": 97839,
                "max": [1.000000, 1.000000, 0.000000, 1.000000],
                "min": [0.000000, 0.000000, 0.000000, 0.000000],
                "type": "VEC4"}
],
 "asset": {"generator": "https://github.com/mikedh/trimesh", "version": "2.0"},
 "bufferViews": [{"buffer": 0, "byteLength": 2348328, "byteOffset": 0},
                 {"buffer": 0, "byteLength": 1174068, "byteOffset": 2348328},
                 {"buffer": 0, "byteLength": 1174068, "byteOffset": 3522396},
                 {"buffer": 0, "byteLength": 782712, "byteOffset": 4696464},
                 {"buffer": 0, "byteLength": 782712, "byteOffset": 5479176},
                 {"buffer": 0, "byteLength": 782712, "byteOffset": 6261888},
                 {"buffer": 0, "byteLength": 782712, "byteOffset": 7044600},
                 {"buffer": 0, "byteLength": 782712, "byteOffset": 7827312},
                 {"buffer": 0, "byteLength": 782712, "byteOffset": 8610024},
                 {"buffer": 0, "byteLength": 1565424, "byteOffset": 9392736}
                 ],
 "buffers": [{"byteLength": 13306296, "uri": "gltf_buffer.bin"}],
 "meshes": [{"extras": {},
             "name": "geometry_0",
             "primitives": [{"attributes": {"NORMAL": 2,
                                            "POSITION": 1,
                                            "COLOR_0": 9,
                                            "TEXCOORD_0": 3,
                                            "TEXCOORD_1": 4,
                                            "TEXCOORD_2": 5,
                                            "TEXCOORD_3": 6,
                                            "TEXCOORD_4": 7,
                                            "TEXCOORD_5": 8
             },
                             "indices": 0,
                             "mode": 4}]}],
 "nodes": [{"children": [1], "name": "world"},
           {"mesh": 0, "name": "geometry_0"}],
 "scene": 0,
 "scenes": [{"nodes": [0]}]}
