
{"accessors": [{"bufferView": 0,
                "componentType": 5125,
                "count": 487260,
                "max": [81211],
                "min": [0],
                "type": "SCALAR"},
               {"bufferView": 1,
                "byteOffset": 0,
                "componentType": 5126,
                "count": 81212,
                "max": [0.055100, 0.136300, 0.124700],
                "min": [-0.055100, -0.135900, 0.000000],
                "type": "VEC3"},
               {"bufferView": 2,
                "byteOffset": 0,
                "componentType": 5126,
                "count": 81212,
                "max": [1.000000, 1.000000, 0.999990],
                "min": [0.000000, 0.000000, 0.000000],
                "type": "VEC3"},
               {"bufferView": 3,
                "byteOffset": 0,
                "componentType": 5126,
                "count": 81212,
                "max": [0.706800, 0.954300],
                "min": [0.291200, 0.047200],
                "type": "VEC2"},
               {"bufferView": 4,
                "byteOffset": 0,
                "componentType": 5126,
                "count": 81212,
                "max": [0.570527, 1.001747],
                "min": [0.063633, 0.048877],
                "type": "VEC2"},
               {"bufferView": 5,
                "byteOffset": 0,
                "componentType": 5126,
                "count": 81212,
                "max": [0.487227, 0.672647],
                "min": [0.245809, 0.035592],
                "type": "VEC2"},
               {"bufferView": 6,
                "byteOffset": 0,
                "componentType": 5126,
                "count": 81212,
                "max": [0.683800, 0.952800],
                "min": [0.316200, 0.045700],
                "type": "VEC2"},
               {"bufferView": 7,
                "byteOffset": 0,
                "componentType": 5126,
                "count": 81212,
                "max": [0.980051, 0.653339],
                "min": [0.526986, 0.032918],
                "type": "VEC2"},
               {"bufferView": 8,
                "byteOffset": 0,
                "componentType": 5126,
                "count": 81212,
                "max": [1.002400, 1.000603],
                "min": [-0.000792, 0.001114],
                "type": "VEC2"},
               {"bufferView": 9,
                "byteOffset": 0,
                "componentType": 5126,
                "count": 81212,
                "max": [1.000000, 0.999787, 0.000000, 1.000000],
                "min": [0.000000, 0.000000, 0.000000, 0.000000],
                "type": "VEC4"}
],
 "asset": {"generator": "https://github.com/mikedh/trimesh", "version": "2.0"},
 "bufferViews": [{"buffer": 0, "byteLength": 1949040, "byteOffset": 0},
                 {"buffer": 0, "byteLength": 974544, "byteOffset": 1949040},
                 {"buffer": 0, "byteLength": 974544, "byteOffset": 2923584},
                 {"buffer": 0, "byteLength": 649696, "byteOffset": 3898128},
                 {"buffer": 0, "byteLength": 649696, "byteOffset": 4547824},
                 {"buffer": 0, "byteLength": 649696, "byteOffset": 5197520},
                 {"buffer": 0, "byteLength": 649696, "byteOffset": 5847216},
                 {"buffer": 0, "byteLength": 649696, "byteOffset": 6496912},
                 {"buffer": 0, "byteLength": 649696, "byteOffset": 7146608},
                 {"buffer": 0, "byteLength": 1299392, "byteOffset": 7796304}
                 ],
 "buffers": [{"byteLength": 10395088, "uri": "gltf_buffer.bin"}],
 "meshes": [{"extras": {},
             "name": "geometry_0",
             "primitives": [{"attributes": {"NORMAL": 2,
                                            "POSITION": 1,
                                            "COLOR_0": 9,
                                            "TEXCOORD_0": 3,
                                            "TEXCOORD_1": 4,
                                            "TEXCOORD_2": 5,
                                            "TEXCOORD_3": 6,
                                            "TEXCOORD_4": 7,
                                            "TEXCOORD_5": 8
             },
                             "indices": 0,
                             "mode": 4}]}],
 "nodes": [{"children": [1], "name": "world"},
           {"mesh": 0, "name": "geometry_0"}],
 "scene": 0,
 "scenes": [{"nodes": [0]}]}
