
{"accessors": [{"bufferView": 0,
                "componentType": 5125,
                "count": 458712,
                "max": [76453],
                "min": [0],
                "type": "SCALAR"},
               {"bufferView": 1,
                "byteOffset": 0,
                "componentType": 5126,
                "count": 76454,
                "max": [0.049000, 0.136300, 0.114900],
                "min": [-0.049300, -0.137100, 0.000800],
                "type": "VEC3"},
               {"bufferView": 2,
                "byteOffset": 0,
                "componentType": 5126,
                "count": 76454,
                "max": [1.000000, 1.000000, 1.000000],
                "min": [0.000000, 0.000000, 0.000000],
                "type": "VEC3"},
               {"bufferView": 3,
                "byteOffset": 0,
                "componentType": 5126,
                "count": 76454,
                "max": [0.691600, 0.954500],
                "min": [0.311200, 0.042900],
                "type": "VEC2"},
               {"bufferView": 4,
                "byteOffset": 0,
                "componentType": 5126,
                "count": 76454,
                "max": [0.659613, 0.894531],
                "min": [0.344785, 0.106661],
                "type": "VEC2"},
               {"bufferView": 5,
                "byteOffset": 0,
                "componentType": 5126,
                "count": 76454,
                "max": [0.477576, 0.899857],
                "min": [0.194444, 0.098612],
                "type": "VEC2"},
               {"bufferView": 6,
                "byteOffset": 0,
                "componentType": 5126,
                "count": 76454,
                "max": [0.663400, 0.957100],
                "min": [0.335800, 0.045500],
                "type": "VEC2"},
               {"bufferView": 7,
                "byteOffset": 0,
                "componentType": 5126,
                "count": 76454,
                "max": [0.897262, 0.730736],
                "min": [0.533196, 0.252380],
                "type": "VEC2"},
               {"bufferView": 8,
                "byteOffset": 0,
                "componentType": 5126,
                "count": 76454,
                "max": [0.949600, 0.994191],
                "min": [0.054739, 0.079662],
                "type": "VEC2"},
               {"bufferView": 9,
                "byteOffset": 0,
                "componentType": 5126,
                "count": 76454,
                "max": [1.000000, 1.000000, 0.000000, 1.000000],
                "min": [0.000000, 0.000000, 0.000000, 0.000000],
                "type": "VEC4"}
],
 "asset": {"generator": "https://github.com/mikedh/trimesh", "version": "2.0"},
 "bufferViews": [{"buffer": 0, "byteLength": 1834848, "byteOffset": 0},
                 {"buffer": 0, "byteLength": 917448, "byteOffset": 1834848},
                 {"buffer": 0, "byteLength": 917448, "byteOffset": 2752296},
                 {"buffer": 0, "byteLength": 611632, "byteOffset": 3669744},
                 {"buffer": 0, "byteLength": 611632, "byteOffset": 4281376},
                 {"buffer": 0, "byteLength": 611632, "byteOffset": 4893008},
                 {"buffer": 0, "byteLength": 611632, "byteOffset": 5504640},
                 {"buffer": 0, "byteLength": 611632, "byteOffset": 6116272},
                 {"buffer": 0, "byteLength": 611632, "byteOffset": 6727904},
                 {"buffer": 0, "byteLength": 1223264, "byteOffset": 7339536}
                 ],
 "buffers": [{"byteLength": 9786064, "uri": "gltf_buffer.bin"}],
 "meshes": [{"extras": {},
             "name": "geometry_0",
             "primitives": [{"attributes": {"NORMAL": 2,
                                            "POSITION": 1,
                                            "COLOR_0": 9,
                                            "TEXCOORD_0": 3,
                                            "TEXCOORD_1": 4,
                                            "TEXCOORD_2": 5,
                                            "TEXCOORD_3": 6,
                                            "TEXCOORD_4": 7,
                                            "TEXCOORD_5": 8
             },
                             "indices": 0,
                             "mode": 4}]}],
 "nodes": [{"children": [1], "name": "world"},
           {"mesh": 0, "name": "geometry_0"}],
 "scene": 0,
 "scenes": [{"nodes": [0]}]}
