
{"accessors": [{"bufferView": 0,
                "componentType": 5125,
                "count": 517128,
                "max": [86257],
                "min": [0],
                "type": "SCALAR"},
               {"bufferView": 1,
                "byteOffset": 0,
                "componentType": 5126,
                "count": 86258,
                "max": [0.052300, 0.147796, 0.132500],
                "min": [-0.052900, -0.136500, 0.000600],
                "type": "VEC3"},
               {"bufferView": 2,
                "byteOffset": 0,
                "componentType": 5126,
                "count": 86258,
                "max": [1.000000, 1.000000, 1.000000],
                "min": [0.000000, 0.000000, 0.000000],
                "type": "VEC3"},
               {"bufferView": 3,
                "byteOffset": 0,
                "componentType": 5126,
                "count": 86258,
                "max": [0.721000, 0.954600],
                "min": [0.000000, 0.000000],
                "type": "VEC2"},
               {"bufferView": 4,
                "byteOffset": 0,
                "componentType": 5126,
                "count": 86258,
                "max": [0.678876, 0.889561],
                "min": [0.000000, 0.000000],
                "type": "VEC2"},
               {"bufferView": 5,
                "byteOffset": 0,
                "componentType": 5126,
                "count": 86258,
                "max": [0.487826, 0.900916],
                "min": [0.000000, 0.000000],
                "type": "VEC2"},
               {"bufferView": 6,
                "byteOffset": 0,
                "componentType": 5126,
                "count": 86258,
                "max": [0.674300, 0.954800],
                "min": [0.000000, 0.000000],
                "type": "VEC2"},
               {"bufferView": 7,
                "byteOffset": 0,
                "componentType": 5126,
                "count": 86258,
                "max": [0.911729, 0.750395],
                "min": [0.519777, 0.206479],
                "type": "VEC2"},
               {"bufferView": 8,
                "byteOffset": 0,
                "componentType": 5126,
                "count": 86258,
                "max": [0.982373, 0.995794],
                "min": [0.000000, -0.061404],
                "type": "VEC2"},
               {"bufferView": 9,
                "byteOffset": 0,
                "componentType": 5126,
                "count": 86258,
                "max": [1.000000, 1.000000, 0.000000, 1.000000],
                "min": [0.000000, 0.000000, 0.000000, 0.000000],
                "type": "VEC4"}
],
 "asset": {"generator": "https://github.com/mikedh/trimesh", "version": "2.0"},
 "bufferViews": [{"buffer": 0, "byteLength": 2068512, "byteOffset": 0},
                 {"buffer": 0, "byteLength": 1035096, "byteOffset": 2068512},
                 {"buffer": 0, "byteLength": 1035096, "byteOffset": 3103608},
                 {"buffer": 0, "byteLength": 690064, "byteOffset": 4138704},
                 {"buffer": 0, "byteLength": 690064, "byteOffset": 4828768},
                 {"buffer": 0, "byteLength": 690064, "byteOffset": 5518832},
                 {"buffer": 0, "byteLength": 690064, "byteOffset": 6208896},
                 {"buffer": 0, "byteLength": 690064, "byteOffset": 6898960},
                 {"buffer": 0, "byteLength": 690064, "byteOffset": 7589024},
                 {"buffer": 0, "byteLength": 1380128, "byteOffset": 8279088}
                 ],
 "buffers": [{"byteLength": 11039344, "uri": "gltf_buffer.bin"}],
 "meshes": [{"extras": {},
             "name": "geometry_0",
             "primitives": [{"attributes": {"NORMAL": 2,
                                            "POSITION": 1,
                                            "COLOR_0": 9,
                                            "TEXCOORD_0": 3,
                                            "TEXCOORD_1": 4,
                                            "TEXCOORD_2": 5,
                                            "TEXCOORD_3": 6,
                                            "TEXCOORD_4": 7,
                                            "TEXCOORD_5": 8
             },
                             "indices": 0,
                             "mode": 4}]}],
 "nodes": [{"children": [1], "name": "world"},
           {"mesh": 0, "name": "geometry_0"}],
 "scene": 0,
 "scenes": [{"nodes": [0]}]}
