
{"accessors": [{"bufferView": 0,
                "componentType": 5125,
                "count": 481164,
                "max": [80193],
                "min": [0],
                "type": "SCALAR"},
               {"bufferView": 1,
                "byteOffset": 0,
                "componentType": 5126,
                "count": 80194,
                "max": [0.055100, 0.136100, 0.125000],
                "min": [-0.055400, -0.136000, 0.001100],
                "type": "VEC3"},
               {"bufferView": 2,
                "byteOffset": 0,
                "componentType": 5126,
                "count": 80194,
                "max": [1.000000, 1.000000, 1.000000],
                "min": [0.000000, 0.000000, 0.000000],
                "type": "VEC3"},
               {"bufferView": 3,
                "byteOffset": 0,
                "componentType": 5126,
                "count": 80194,
                "max": [0.707500, 0.953900],
                "min": [0.294800, 0.046600],
                "type": "VEC2"},
               {"bufferView": 4,
                "byteOffset": 0,
                "componentType": 5126,
                "count": 80194,
                "max": [0.571970, 0.974968],
                "min": [0.132343, 0.026865],
                "type": "VEC2"},
               {"bufferView": 5,
                "byteOffset": 0,
                "componentType": 5126,
                "count": 80194,
                "max": [0.475848, 0.733431],
                "min": [0.206005, 0.022289],
                "type": "VEC2"},
               {"bufferView": 6,
                "byteOffset": 0,
                "componentType": 5126,
                "count": 80194,
                "max": [0.684500, 0.953400],
                "min": [0.316400, 0.046100],
                "type": "VEC2"},
               {"bufferView": 7,
                "byteOffset": 0,
                "componentType": 5126,
                "count": 80194,
                "max": [0.982957, 0.638270],
                "min": [0.543914, 0.070715],
                "type": "VEC2"},
               {"bufferView": 8,
                "byteOffset": 0,
                "componentType": 5126,
                "count": 80194,
                "max": [1.002400, 0.991786],
                "min": [-0.003523, -0.001291],
                "type": "VEC2"},
               {"bufferView": 9,
                "byteOffset": 0,
                "componentType": 5126,
                "count": 80194,
                "max": [1.000000, 0.999982, 0.000000, 1.000000],
                "min": [0.000000, 0.000000, 0.000000, 0.000000],
                "type": "VEC4"}
],
 "asset": {"generator": "https://github.com/mikedh/trimesh", "version": "2.0"},
 "bufferViews": [{"buffer": 0, "byteLength": 1924656, "byteOffset": 0},
                 {"buffer": 0, "byteLength": 962328, "byteOffset": 1924656},
                 {"buffer": 0, "byteLength": 962328, "byteOffset": 2886984},
                 {"buffer": 0, "byteLength": 641552, "byteOffset": 3849312},
                 {"buffer": 0, "byteLength": 641552, "byteOffset": 4490864},
                 {"buffer": 0, "byteLength": 641552, "byteOffset": 5132416},
                 {"buffer": 0, "byteLength": 641552, "byteOffset": 5773968},
                 {"buffer": 0, "byteLength": 641552, "byteOffset": 6415520},
                 {"buffer": 0, "byteLength": 641552, "byteOffset": 7057072},
                 {"buffer": 0, "byteLength": 1283104, "byteOffset": 7698624}
                 ],
 "buffers": [{"byteLength": 10264832, "uri": "gltf_buffer.bin"}],
 "meshes": [{"extras": {},
             "name": "geometry_0",
             "primitives": [{"attributes": {"NORMAL": 2,
                                            "POSITION": 1,
                                            "COLOR_0": 9,
                                            "TEXCOORD_0": 3,
                                            "TEXCOORD_1": 4,
                                            "TEXCOORD_2": 5,
                                            "TEXCOORD_3": 6,
                                            "TEXCOORD_4": 7,
                                            "TEXCOORD_5": 8
             },
                             "indices": 0,
                             "mode": 4}]}],
 "nodes": [{"children": [1], "name": "world"},
           {"mesh": 0, "name": "geometry_0"}],
 "scene": 0,
 "scenes": [{"nodes": [0]}]}
