
{"accessors": [{"bufferView": 0,
                "componentType": 5125,
                "count": 439854,
                "max": [73310],
                "min": [0],
                "type": "SCALAR"},
               {"bufferView": 1,
                "byteOffset": 0,
                "componentType": 5126,
                "count": 73311,
                "max": [0.052100, 0.127700, 0.124900],
                "min": [-0.051800, -0.129100, 0.001000],
                "type": "VEC3"},
               {"bufferView": 2,
                "byteOffset": 0,
                "componentType": 5126,
                "count": 73311,
                "max": [1.000000, 1.000000, 1.000000],
                "min": [0.000000, 0.000000, 0.000000],
                "type": "VEC3"},
               {"bufferView": 3,
                "byteOffset": 0,
                "componentType": 5126,
                "count": 73311,
                "max": [0.718400, 0.949100],
                "min": [0.282700, 0.046000],
                "type": "VEC2"},
               {"bufferView": 4,
                "byteOffset": 0,
                "componentType": 5126,
                "count": 73311,
                "max": [0.581645, 0.974587],
                "min": [0.130586, 0.027797],
                "type": "VEC2"},
               {"bufferView": 5,
                "byteOffset": 0,
                "componentType": 5126,
                "count": 73311,
                "max": [0.484333, 0.674836],
                "min": [0.231233, -0.000075],
                "type": "VEC2"},
               {"bufferView": 6,
                "byteOffset": 0,
                "componentType": 5126,
                "count": 73311,
                "max": [0.681300, 0.954000],
                "min": [0.316100, 0.050900],
                "type": "VEC2"},
               {"bufferView": 7,
                "byteOffset": 0,
                "componentType": 5126,
                "count": 73311,
                "max": [1.005894, 0.664215],
                "min": [0.528964, 0.006743],
                "type": "VEC2"},
               {"bufferView": 8,
                "byteOffset": 0,
                "componentType": 5126,
                "count": 73311,
                "max": [0.975090, 0.992588],
                "min": [0.029250, -0.000489],
                "type": "VEC2"},
               {"bufferView": 9,
                "byteOffset": 0,
                "componentType": 5126,
                "count": 73311,
                "max": [1.000000, 1.000000, 0.105058, 1.000000],
                "min": [0.000000, 0.000000, 0.000000, 0.000000],
                "type": "VEC4"}
],
 "asset": {"generator": "https://github.com/mikedh/trimesh", "version": "2.0"},
 "bufferViews": [{"buffer": 0, "byteLength": 1759416, "byteOffset": 0},
                 {"buffer": 0, "byteLength": 879732, "byteOffset": 1759416},
                 {"buffer": 0, "byteLength": 879732, "byteOffset": 2639148},
                 {"buffer": 0, "byteLength": 586488, "byteOffset": 3518880},
                 {"buffer": 0, "byteLength": 586488, "byteOffset": 4105368},
                 {"buffer": 0, "byteLength": 586488, "byteOffset": 4691856},
                 {"buffer": 0, "byteLength": 586488, "byteOffset": 5278344},
                 {"buffer": 0, "byteLength": 586488, "byteOffset": 5864832},
                 {"buffer": 0, "byteLength": 586488, "byteOffset": 6451320},
                 {"buffer": 0, "byteLength": 1172976, "byteOffset": 7037808}
                 ],
 "buffers": [{"byteLength": 9383760, "uri": "gltf_buffer.bin"}],
 "meshes": [{"extras": {},
             "name": "geometry_0",
             "primitives": [{"attributes": {"NORMAL": 2,
                                            "POSITION": 1,
                                            "COLOR_0": 9,
                                            "TEXCOORD_0": 3,
                                            "TEXCOORD_1": 4,
                                            "TEXCOORD_2": 5,
                                            "TEXCOORD_3": 6,
                                            "TEXCOORD_4": 7,
                                            "TEXCOORD_5": 8
             },
                             "indices": 0,
                             "mode": 4}]}],
 "nodes": [{"children": [1], "name": "world"},
           {"mesh": 0, "name": "geometry_0"}],
 "scene": 0,
 "scenes": [{"nodes": [0]}]}
