
{"accessors": [{"bufferView": 0,
                "componentType": 5125,
                "count": 451128,
                "max": [75185],
                "min": [0],
                "type": "SCALAR"},
               {"bufferView": 1,
                "byteOffset": 0,
                "componentType": 5126,
                "count": 75186,
                "max": [0.048000, 0.129700, 0.121000],
                "min": [-0.047100, -0.129200, 0.000400],
                "type": "VEC3"},
               {"bufferView": 2,
                "byteOffset": 0,
                "componentType": 5126,
                "count": 75186,
                "max": [1.000000, 1.000000, 1.000000],
                "min": [0.000000, 0.000000, 0.000000],
                "type": "VEC3"},
               {"bufferView": 3,
                "byteOffset": 0,
                "componentType": 5126,
                "count": 75186,
                "max": [0.712300, 0.956000],
                "min": [0.288600, 0.045800],
                "type": "VEC2"},
               {"bufferView": 4,
                "byteOffset": 0,
                "componentType": 5126,
                "count": 75186,
                "max": [0.680640, 0.883024],
                "min": [0.317775, 0.123174],
                "type": "VEC2"},
               {"bufferView": 5,
                "byteOffset": 0,
                "componentType": 5126,
                "count": 75186,
                "max": [0.484094, 0.900617],
                "min": [0.189876, 0.101698],
                "type": "VEC2"},
               {"bufferView": 6,
                "byteOffset": 0,
                "componentType": 5126,
                "count": 75186,
                "max": [0.667800, 0.954200],
                "min": [0.333600, 0.044000],
                "type": "VEC2"},
               {"bufferView": 7,
                "byteOffset": 0,
                "componentType": 5126,
                "count": 75186,
                "max": [0.911063, 0.756018],
                "min": [0.518925, 0.215498],
                "type": "VEC2"},
               {"bufferView": 8,
                "byteOffset": 0,
                "componentType": 5126,
                "count": 75186,
                "max": [1.002376, 1.002284],
                "min": [0.000629, -0.000173],
                "type": "VEC2"},
               {"bufferView": 9,
                "byteOffset": 0,
                "componentType": 5126,
                "count": 75186,
                "max": [1.000000, 0.999998, 0.000000, 1.000000],
                "min": [0.000000, 0.000000, 0.000000, 0.000000],
                "type": "VEC4"}
],
 "asset": {"generator": "https://github.com/mikedh/trimesh", "version": "2.0"},
 "bufferViews": [{"buffer": 0, "byteLength": 1804512, "byteOffset": 0},
                 {"buffer": 0, "byteLength": 902232, "byteOffset": 1804512},
                 {"buffer": 0, "byteLength": 902232, "byteOffset": 2706744},
                 {"buffer": 0, "byteLength": 601488, "byteOffset": 3608976},
                 {"buffer": 0, "byteLength": 601488, "byteOffset": 4210464},
                 {"buffer": 0, "byteLength": 601488, "byteOffset": 4811952},
                 {"buffer": 0, "byteLength": 601488, "byteOffset": 5413440},
                 {"buffer": 0, "byteLength": 601488, "byteOffset": 6014928},
                 {"buffer": 0, "byteLength": 601488, "byteOffset": 6616416},
                 {"buffer": 0, "byteLength": 1202976, "byteOffset": 7217904}
                 ],
 "buffers": [{"byteLength": 9623856, "uri": "gltf_buffer.bin"}],
 "meshes": [{"extras": {},
             "name": "geometry_0",
             "primitives": [{"attributes": {"NORMAL": 2,
                                            "POSITION": 1,
                                            "COLOR_0": 9,
                                            "TEXCOORD_0": 3,
                                            "TEXCOORD_1": 4,
                                            "TEXCOORD_2": 5,
                                            "TEXCOORD_3": 6,
                                            "TEXCOORD_4": 7,
                                            "TEXCOORD_5": 8
             },
                             "indices": 0,
                             "mode": 4}]}],
 "nodes": [{"children": [1], "name": "world"},
           {"mesh": 0, "name": "geometry_0"}],
 "scene": 0,
 "scenes": [{"nodes": [0]}]}
