
{"accessors": [{"bufferView": 0,
                "componentType": 5125,
                "count": 473364,
                "max": [78895],
                "min": [0],
                "type": "SCALAR"},
               {"bufferView": 1,
                "byteOffset": 0,
                "componentType": 5126,
                "count": 78896,
                "max": [0.056600, 0.135700, 0.120500],
                "min": [-0.055900, -0.136900, 0.000800],
                "type": "VEC3"},
               {"bufferView": 2,
                "byteOffset": 0,
                "componentType": 5126,
                "count": 78896,
                "max": [1.000000, 1.000000, 1.000000],
                "min": [0.000000, 0.000000, 0.000000],
                "type": "VEC3"},
               {"bufferView": 3,
                "byteOffset": 0,
                "componentType": 5126,
                "count": 78896,
                "max": [0.700600, 0.952300],
                "min": [0.301600, 0.043800],
                "type": "VEC2"},
               {"bufferView": 4,
                "byteOffset": 0,
                "componentType": 5126,
                "count": 78896,
                "max": [0.561445, 0.977273],
                "min": [0.153508, 0.026585],
                "type": "VEC2"},
               {"bufferView": 5,
                "byteOffset": 0,
                "componentType": 5126,
                "count": 78896,
                "max": [0.487947, 0.664336],
                "min": [0.235058, 0.002928],
                "type": "VEC2"},
               {"bufferView": 6,
                "byteOffset": 0,
                "componentType": 5126,
                "count": 78896,
                "max": [0.686500, 0.956200],
                "min": [0.311300, 0.047700],
                "type": "VEC2"},
               {"bufferView": 7,
                "byteOffset": 0,
                "componentType": 5126,
                "count": 78896,
                "max": [0.985017, 0.646565],
                "min": [0.528912, 0.065882],
                "type": "VEC2"},
               {"bufferView": 8,
                "byteOffset": 0,
                "componentType": 5126,
                "count": 78896,
                "max": [1.016055, 0.994191],
                "min": [-0.008074, 0.034777],
                "type": "VEC2"},
               {"bufferView": 9,
                "byteOffset": 0,
                "componentType": 5126,
                "count": 78896,
                "max": [1.000000, 1.000000, 0.000000, 1.000000],
                "min": [0.000000, 0.000000, 0.000000, 0.000000],
                "type": "VEC4"}
],
 "asset": {"generator": "https://github.com/mikedh/trimesh", "version": "2.0"},
 "bufferViews": [{"buffer": 0, "byteLength": 1893456, "byteOffset": 0},
                 {"buffer": 0, "byteLength": 946752, "byteOffset": 1893456},
                 {"buffer": 0, "byteLength": 946752, "byteOffset": 2840208},
                 {"buffer": 0, "byteLength": 631168, "byteOffset": 3786960},
                 {"buffer": 0, "byteLength": 631168, "byteOffset": 4418128},
                 {"buffer": 0, "byteLength": 631168, "byteOffset": 5049296},
                 {"buffer": 0, "byteLength": 631168, "byteOffset": 5680464},
                 {"buffer": 0, "byteLength": 631168, "byteOffset": 6311632},
                 {"buffer": 0, "byteLength": 631168, "byteOffset": 6942800},
                 {"buffer": 0, "byteLength": 1262336, "byteOffset": 7573968}
                 ],
 "buffers": [{"byteLength": 10098640, "uri": "gltf_buffer.bin"}],
 "meshes": [{"extras": {},
             "name": "geometry_0",
             "primitives": [{"attributes": {"NORMAL": 2,
                                            "POSITION": 1,
                                            "COLOR_0": 9,
                                            "TEXCOORD_0": 3,
                                            "TEXCOORD_1": 4,
                                            "TEXCOORD_2": 5,
                                            "TEXCOORD_3": 6,
                                            "TEXCOORD_4": 7,
                                            "TEXCOORD_5": 8
             },
                             "indices": 0,
                             "mode": 4}]}],
 "nodes": [{"children": [1], "name": "world"},
           {"mesh": 0, "name": "geometry_0"}],
 "scene": 0,
 "scenes": [{"nodes": [0]}]}
