
{"accessors": [{"bufferView": 0,
                "componentType": 5125,
                "count": 456552,
                "max": [76093],
                "min": [0],
                "type": "SCALAR"},
               {"bufferView": 1,
                "byteOffset": 0,
                "componentType": 5126,
                "count": 76094,
                "max": [0.049900, 0.136300, 0.127000],
                "min": [-0.050300, -0.135800, 0.000100],
                "type": "VEC3"},
               {"bufferView": 2,
                "byteOffset": 0,
                "componentType": 5126,
                "count": 76094,
                "max": [1.000000, 1.000000, 1.000000],
                "min": [0.000000, 0.000000, 0.000000],
                "type": "VEC3"},
               {"bufferView": 3,
                "byteOffset": 0,
                "componentType": 5126,
                "count": 76094,
                "max": [0.712500, 0.954300],
                "min": [0.289600, 0.047300],
                "type": "VEC2"},
               {"bufferView": 4,
                "byteOffset": 0,
                "componentType": 5126,
                "count": 76094,
                "max": [0.445662, 0.972327],
                "min": [0.010109, 0.025552],
                "type": "VEC2"},
               {"bufferView": 5,
                "byteOffset": 0,
                "componentType": 5126,
                "count": 76094,
                "max": [0.334472, 1.000753],
                "min": [-0.001554, 0.004105],
                "type": "VEC2"},
               {"bufferView": 6,
                "byteOffset": 0,
                "componentType": 5126,
                "count": 76094,
                "max": [0.667900, 0.952700],
                "min": [0.333800, 0.045700],
                "type": "VEC2"},
               {"bufferView": 7,
                "byteOffset": 0,
                "componentType": 5126,
                "count": 76094,
                "max": [1.000279, 0.694137],
                "min": [0.511713, 0.061017],
                "type": "VEC2"},
               {"bufferView": 8,
                "byteOffset": 0,
                "componentType": 5126,
                "count": 76094,
                "max": [0.473620, 0.653051],
                "min": [-0.004427, 0.040589],
                "type": "VEC2"},
               {"bufferView": 9,
                "byteOffset": 0,
                "componentType": 5126,
                "count": 76094,
                "max": [1.000000, 1.000000, 1.000000, 1.000000],
                "min": [0.000000, 0.000000, 0.000000, 0.000000],
                "type": "VEC4"}
],
 "asset": {"generator": "https://github.com/mikedh/trimesh", "version": "2.0"},
 "bufferViews": [{"buffer": 0, "byteLength": 1826208, "byteOffset": 0},
                 {"buffer": 0, "byteLength": 913128, "byteOffset": 1826208},
                 {"buffer": 0, "byteLength": 913128, "byteOffset": 2739336},
                 {"buffer": 0, "byteLength": 608752, "byteOffset": 3652464},
                 {"buffer": 0, "byteLength": 608752, "byteOffset": 4261216},
                 {"buffer": 0, "byteLength": 608752, "byteOffset": 4869968},
                 {"buffer": 0, "byteLength": 608752, "byteOffset": 5478720},
                 {"buffer": 0, "byteLength": 608752, "byteOffset": 6087472},
                 {"buffer": 0, "byteLength": 608752, "byteOffset": 6696224},
                 {"buffer": 0, "byteLength": 1217504, "byteOffset": 7304976}
                 ],
 "buffers": [{"byteLength": 9739984, "uri": "gltf_buffer.bin"}],
 "meshes": [{"extras": {},
             "name": "geometry_0",
             "primitives": [{"attributes": {"NORMAL": 2,
                                            "POSITION": 1,
                                            "COLOR_0": 9,
                                            "TEXCOORD_0": 3,
                                            "TEXCOORD_1": 4,
                                            "TEXCOORD_2": 5,
                                            "TEXCOORD_3": 6,
                                            "TEXCOORD_4": 7,
                                            "TEXCOORD_5": 8
             },
                             "indices": 0,
                             "mode": 4}]}],
 "nodes": [{"children": [1], "name": "world"},
           {"mesh": 0, "name": "geometry_0"}],
 "scene": 0,
 "scenes": [{"nodes": [0]}]}
